# xmcd
#
# Track frame offsets: 
#        150
#        12912
#        27174
#        36344
#        57459
#        73688
#        90314
#        102648
#        114951
#        131131
#        149089
#        166130
#        190850
#        204831
#        241512
#
# Disc length: 3273 seconds
#
# Revision: 0
# Processed by: cddbd v1.5.2PL0 Copyright (c) Steve Scherf et al.
# Submitted via: ExactAudioCopy v1.0b6
#
DISCID=cb0cc70f
DTITLE=Clint Black - Playlist The Very Best of Clint Black
DYEAR=2009
DGENRE=Country
TTITLE0=Walkin' Away
TTITLE1=Where Are You Now
TTITLE2=Hold on Partner
TTITLE3=We Tell Ourselves
TTITLE4=When My Ship Comes In
TTITLE5=A Bad Goodbye
TTITLE6=A Good Run of Bad Luck
TTITLE7=One Emotion
TTITLE8=Cadillac Jack Favor
TTITLE9=Something That We Do
TTITLE10=Ode to Chet
TTITLE11=Been There
TTITLE12=Bob Away My Blues
TTITLE13=Easy for Me to Say
TTITLE14=PDF
EXTD=
EXTT0=
EXTT1=
EXTT2=
EXTT3=
EXTT4=
EXTT5=
EXTT6=
EXTT7=
EXTT8=
EXTT9=
EXTT10=
EXTT11=
EXTT12=
EXTT13=
EXTT14=
PLAYORDER=
